<?xml version="1.0" encoding="utf-8"?>
<!-- Generator: Adobe Illustrator 26.3.1, SVG Export Plug-In . SVG Version: 6.00 Build 0)  -->
<svg version="1.1" xmlns="http://www.w3.org/2000/svg" xmlns:xlink="http://www.w3.org/1999/xlink" x="0px" y="0px"
	 viewBox="0 0 1178.5 977.2" style="enable-background:new 0 0 1178.5 977.2;" xml:space="preserve">
<style type="text/css">
	.st0{fill:#4A1405;}
	.st1{fill:#C4823D;}
	.st2{fill:#FFFFFF;}
	.st3{fill:#DCB88F;}
</style>
<g id="Background">
</g>
<g id="Symbol">
	<g>
		<path class="st0" d="M663.7,201.1c0,0,11.5-9.7,6.5-31.2c0,0,2.3,12.8-15.5,25.8L663.7,201.1z"/>
		<path class="st0" d="M589.8,187.6c-175.3,0-317.5,142.1-317.5,317.5c0,18.5,1.6,36.5,4.6,54.1c206.9-35.9,419.1-37.3,626.1-2.8
			c2.7-16.7,4.2-33.9,4.2-51.4C907.3,329.8,765.1,187.6,589.8,187.6z M350.7,713.9c58.2,66.6,143.7,108.7,239.1,108.7
			c95.4,0,181-42.1,239.2-108.7C670.7,690.6,508.9,690.7,350.7,713.9z"/>
		<path class="st1" d="M799.8,447.7c-4.4-16.8-10.6-31.7-17.4-44.4c-13.6-25.5-29.2-42.3-40.2-52.9c-10-9.5-16.5-14.1-17.7-15.1
			c25.1,20.6,45.4,46.9,58.6,76.2c13.3,29.3,19.3,61.6,17.9,93.2c-0.5,12.5-2.2,25-5.1,37.1c2.1,0.2,4.2,0.4,6.3,0.7
			c2.8-13.3,4.1-26.4,4.3-38.9C806.9,483.4,804.3,464.5,799.8,447.7z M394.3,408.4c-14.6,29-22,61.6-21.6,94
			c0.1,14.2,1.7,28.3,4.7,42.1c2.2-0.3,4.3-0.5,6.5-0.7c-3.5-14.6-5.3-29-5.6-42.7c-0.5-19.6,1.8-37.9,5.9-54.4
			c4.1-16.5,9.9-31.1,16.3-43.6c12.9-25.2,27.8-42.2,38.4-52.9c10.8-10.7,17.3-15.5,17.3-15.6C430.3,353.9,408.8,379.3,394.3,408.4z
			"/>
		<path class="st0" d="M194.6,752.6c0,0,88.1-15.7,154.5,16.3c-10.3-27.2-23.7-51-23.7-51S243.1,728.6,194.6,752.6z"/>
		<path class="st0" d="M987.9,752.6c0,0-88.1-15.7-154.5,16.3c10.3-27.2,23.7-51,23.7-51S939.4,728.6,987.9,752.6z"/>
		<path class="st1" d="M664.7,286.8l17-59.2L660,285.2C661.6,285.7,663.1,286.2,664.7,286.8z M651.6,219.4L636.3,279
			c1.6,0.3,3.2,0.7,4.8,1L651.6,219.4z M604.9,213.2l-5.6,61.4c1.6,0.1,3.2,0.1,4.9,0.2L604.9,213.2z M620.9,214.5l-9,60.9
			c1.6,0.2,3.2,0.3,4.8,0.5L620.9,214.5z M635.8,216.4l-12.1,60.4c1.6,0.2,3.2,0.5,4.8,0.8L635.8,216.4z M652.6,283l13.7-60
			l-18.4,58.7C649.4,282.1,651,282.5,652.6,283z M719.2,314l31.9-52.7l-36,50C716.5,312.2,717.8,313.1,719.2,314z M675.8,290.9
			l20-58.2l-24.6,56.5C672.8,289.7,674.3,290.3,675.8,290.9z M709.1,307.6l29.1-54.3l-33.3,51.8
			C706.4,305.9,707.8,306.7,709.1,307.6z M698.1,301.3l26.1-55.8l-30.4,53.5C695.2,299.8,696.7,300.5,698.1,301.3z M687.5,296
			l23.2-57L683,294C684.5,294.6,686,295.3,687.5,296z M485.1,299.4L454.5,246l26.3,55.7C482.2,300.9,483.7,300.1,485.1,299.4z
			 M496.6,294l-27.6-55l23.2,57C493.6,295.3,495.1,294.6,496.6,294z M507.6,289.4l-24.8-56.4l20.2,58.1
			C504.6,290.6,506.1,290,507.6,289.4z M729.5,321.4l34.8-50.9l-38.7,48C726.9,319.4,728.2,320.4,729.5,321.4z M474.7,305.1
			l-33.3-51.8l29.1,54.3C471.9,306.7,473.2,305.9,474.7,305.1z M519.6,285.2l-21.6-57.6l17,59.2C516.5,286.2,518,285.7,519.6,285.2z
			 M555.1,276.9l-12.3-60.3l7.5,61.1C551.9,277.4,553.5,277.2,555.1,276.9z M579.6,274.6l-5.8-61.3l1,61.6
			C576.3,274.7,577.9,274.6,579.6,274.6z M567.7,275.4l-9-60.9l4.1,61.5C564.4,275.7,566.1,275.5,567.7,275.4z M543.4,279L528,219.4
			l10.6,60.6C540.2,279.7,541.8,279.3,543.4,279z M531,281.9l-18.6-58.7l13.9,59.9C527.9,282.7,529.4,282.3,531,281.9z M592.2,274.4
			l-2.4-61.6l-2.4,61.6c0.8,0,1.6,0,2.4,0C590.6,274.3,591.4,274.4,592.2,274.4z M738.7,328.9l37.4-49.1L735,325.7
			C736.3,326.8,737.5,327.8,738.7,328.9z M813.4,447.8c0.4,1.6,0.8,3.2,1.2,4.7l59.3-17.1L813.4,447.8z M820.5,501.2l61.7-4.2
			l-61.8-0.7C820.4,497.9,820.5,499.6,820.5,501.2z M820.4,513.9l61.8-0.8l-61.7-4.1C820.5,510.6,820.4,512.2,820.4,513.9z
			 M816.2,460.1c0.3,1.6,0.6,3.2,0.9,4.8l60.2-13.8L816.2,460.1z M818.8,476.7l60.8-10.7l-61.5,5.9
			C818.4,473.5,818.6,475.1,818.8,476.7z M820,489.3l61.4-7.4l-61.7,2.5C819.8,486.1,819.9,487.7,820,489.3z M359.7,521.7l-61.4,7.5
			l61.8-2.6C359.9,524.9,359.8,523.3,359.7,521.7z M360.8,533.5l-60.9,10.6l61.5-5.8C361.2,536.7,361,535.1,360.8,533.5z
			 M818.2,538.3l61.5,5.8l-60.9-10.6C818.6,535.1,818.4,536.7,818.2,538.3z M819.6,525.7l61.8,2.4l-61.4-7.3
			C819.9,522.5,819.8,524.1,819.6,525.7z M359.3,546.8c1.2-0.1,2.3-0.3,3.5-0.4c0-0.1,0-0.2-0.1-0.3L359.3,546.8z M765.1,355.1
			l44.8-42.4l-48,38.8C763,352.6,764.1,353.9,765.1,355.1z M780.1,374.6l49-37.4l-51.8,33.4C778.3,371.9,779.2,373.2,780.1,374.6z
			 M772.7,364.3l46.9-40.1l-49.9,36.2C770.7,361.8,771.7,363,772.7,364.3z M463.9,311.7l-36.1-49.9l32.1,52.6
			C461.1,313.5,462.5,312.6,463.9,311.7z M756.6,345.7l42.4-44.8l-45.8,41.3C754.4,343.3,755.5,344.5,756.6,345.7z M748.2,337.3
			l40-46.9L744.6,334C745.8,335.1,747,336.2,748.2,337.3z M796.2,401.8c0.7,1.5,1.4,2.9,2.1,4.4l54.3-29.2L796.2,401.8z
			 M801.6,413.3c0.6,1.5,1.3,3,1.9,4.5l55.8-26.2L801.6,413.3z M806,424.3c0.6,1.5,1.1,3,1.7,4.6l57.1-23.3L806,424.3z M810.1,436.3
			c0.5,1.6,0.9,3.1,1.4,4.7l58.3-20.1L810.1,436.3z M786.6,384.6l50.9-34.8L784,380.4C784.9,381.8,785.8,383.2,786.6,384.6z
			 M790.6,391.3c0.8,1.4,1.6,2.8,2.4,4.3l52.7-32L790.6,391.3z M612.3,734.7l9.1,61.3l-4.3-61.9
			C615.5,734.4,613.9,734.6,612.3,734.7z M559.2,796.2l8.9-61.4c-1.6-0.2-3.3-0.3-4.9-0.5L559.2,796.2z M574.2,797.4l5.7-61.8
			c-1.6-0.1-3.3-0.2-4.9-0.3L574.2,797.4z M599.6,735.6l5.7,61.8l-0.9-62C602.9,735.5,601.3,735.5,599.6,735.6z M624.1,733.3
			l12.3,60.8l-7.4-61.5C627.3,732.8,625.7,733.1,624.1,733.3z M587.8,735.8l2.6,62l2.3-62c-1,0-1.9,0-2.9,0
			C589.1,735.8,588.4,735.8,587.8,735.8z M543.3,794.1l12.3-60.8c-1.6-0.2-3.2-0.5-4.8-0.8L543.3,794.1z M492.7,714.4l-23.3,57.4
			l27.7-55.4C495.6,715.8,494.1,715.1,492.7,714.4z M539.1,730.2l-10.6,61.1l15.4-60C542.3,730.9,540.7,730.6,539.1,730.2z
			 M503.6,719.2l-20.3,58.5l24.8-56.8C506.6,720.4,505.1,719.8,503.6,719.2z M515.4,723.6l-17,59.5l21.7-58
			C518.5,724.6,517,724.1,515.4,723.6z M526.8,727.1l-13.9,60.4l18.6-59.1C529.9,728,528.3,727.6,526.8,727.1z M694,711l30.7,53.8
			l-26.4-56.1C696.9,709.5,695.4,710.3,694,711z M717.1,701.3l34.4,47.7l-28.7-47.3C720.9,701.6,719,701.5,717.1,701.3z M705.1,705
			l33.6,52l-29.4-54.5C707.9,703.3,706.5,704.2,705.1,705z M734.7,702.8l29.9,37l-25.1-36.5C738,703.1,736.4,702.9,734.7,702.8z
			 M775.6,706.9l13,13l-10.9-12.8C777,707,776.3,707,775.6,706.9z M753.1,704.5l23.3,26l-19.6-25.6
			C755.7,704.8,754.4,704.6,753.1,704.5z M671.5,720.9l24.8,56.8l-20.3-58.5C674.5,719.8,673,720.4,671.5,720.9z M660.3,724.9
			l21.9,58l-17.2-59.5C663.4,723.8,661.8,724.4,660.3,724.9z M648.1,728.4l18.6,59.1l-13.9-60.4C651.3,727.6,649.7,728,648.1,728.4z
			 M636.5,731.1l15.6,60l-10.8-61C639.7,730.4,638.1,730.8,636.5,731.1z M481.3,708.8l-26.4,56.1l30.7-53.8
			C484.2,710.3,482.7,709.5,481.3,708.8z M683.2,716.1l27.9,55.3l-23.4-57.3C686.2,714.8,684.7,715.5,683.2,716.1z M471,702.9
			l-29.2,54.6l33.4-52.1C473.8,704.6,472.4,703.8,471,702.9z M395.2,381.1l-53.6-30.5l51,34.7C393.4,383.8,394.3,382.5,395.2,381.1z
			 M402.3,370.6l-51.8-33.4l49,37.4C400.4,373.2,401.3,371.9,402.3,370.6z M454.1,318.5l-38.7-48l34.8,50.9
			C451.4,320.4,452.7,319.4,454.1,318.5z M376.2,417.8c0.6-1.5,1.2-3,1.9-4.5l-57.7-21.7L376.2,417.8z M381,406.9
			c0.7-1.5,1.4-2.9,2.1-4.4l-56.5-24.7L381,406.9z M444,326.2l-41.3-45.8l37.5,48.9C441.5,328.3,442.8,327.3,444,326.2z M435,334
			l-43.6-43.6l40,46.9C432.6,336.2,433.8,335.1,435,334z M409.5,361.1l-50-36.1l47,39.9C407.5,363.7,408.5,362.4,409.5,361.1z
			 M371.7,429.6c0.5-1.5,1.1-3.1,1.6-4.6l-58.8-18.5L371.7,429.6z M425.8,342.8l-45.9-41.2l42.5,44.7
			C423.5,345.1,424.7,343.9,425.8,342.8z M417.7,351.4l-48-38.7l44.8,42.4C415.5,353.9,416.6,352.6,417.7,351.4z M386.7,395.5
			c0.8-1.4,1.6-2.8,2.4-4.3l-55.1-27.7L386.7,395.5z M422.6,704.9l-19.5,25.5l23.3-25.9C425.2,704.7,423.9,704.8,422.6,704.9z
			 M403.3,707l-11.5,13.5l13.7-13.8C404.8,706.9,404,706.9,403.3,707z M368.1,441c0.5-1.6,0.9-3.1,1.4-4.7l-59.7-15.5L368.1,441z
			 M359.1,509l-61.7,4.1l61.8,0.8C359.2,512.2,359.1,510.6,359.1,509z M441.1,703.2l-25.3,37.2l30.2-37.6
			C444.4,702.9,442.7,703,441.1,703.2z M456.8,701.8L428.1,749l34.4-47.6C460.6,701.5,458.7,701.6,456.8,701.8z M362.5,464.9
			c0.3-1.6,0.6-3.2,0.9-4.8l-61.1-9L362.5,464.9z M359.2,497.1l-61.8,0.9l61.7,4C359.1,500.4,359.2,498.7,359.2,497.1z M364.9,453.3
			c0.4-1.6,0.8-3.2,1.1-4.7l-60.5-12.2L364.9,453.3z M360,484.4l-61.7-2.5l61.4,7.4C359.7,487.7,359.8,486.1,360,484.4z
			 M361.3,472.6l-61.5-5.7l60.9,10.5C360.9,475.9,361.1,474.2,361.3,472.6z"/>
		<g>
			<path class="st0" d="M677.8,755c-62.2-5.6-126.8-6-186.7-1.2l-1.7-27.4l-1.4-23.6c62.1-4.9,129-4.5,193.4,1.3L677.8,755z"/>
		</g>
		<path class="st0" d="M493.7,700.5c-10.8-2.1-113.5,8.8-113.5,8.8l25.6,31.4c45-28.7,84.2-29,84.2-29L493.7,700.5z"/>
		<path class="st0" d="M677.7,700.5c10.8-2.1,121.8,10.2,121.8,10.2l-33.9,30c-45-28.7-84.2-29-84.2-29L677.7,700.5z"/>
		<path class="st1" d="M665.3,407c-16,6.3-108.2,17.2-135.1-3.4c24.5,7.9,71,5,89,3c30.8-3.4,29-14.7,8.5-20.4
			c-23-6.3-62.3-7-93-4.8c-41,3.3-64,12.4-64,22.8c2.6,12.9,48.7,24.4,102.4,26c66.6,1.2,120.4-10.7,128-25.9
			c5.1-12.2-28.2-23.4-84.5-25.7c35.9,5.8,69.1,10.9,69.1,21.3c-2.6,12.3-35.9,24.3-92.2,26.2c-64,1.9-120.4-10.8-110.1-26.1
			c5.1-6.7,20.5-12.7,48.7-15.6c-42.1,7.1-56.4,18.3-18.6,28.7C556.8,424.8,637.2,423.1,665.3,407z"/>
		<path class="st2" d="M683.8,381c0,0,45.3,10.1,28.9,34.3c-11,16.2-58.5,26.6-127.2,27.2c-63.6,0.6-105.4-7.2-125.1-25
			c-5.2-4.7-7.6-10.9-6-17.6c4.4-18.5,44.2-28.5,84.6-28.9c0,0-54.2-4.9-82.3,14.7c-33.5,23.4,7.6,128.1,37,139.1
			c5,1.9,11.1,6.6,12.8,3.4c27.1,2.8,47.2-2.9,80-3.2c32-0.3,57.1,6.6,78.8,1.3c3.7,5.2-0.9,5.3,14.7-5.6
			c16.6-11.6,46.6-65.7,49.4-98.7C732.3,386.7,683.8,381,683.8,381z"/>
		<path class="st2" d="M743.7,424.8c0,0,8.1-0.1,22-0.2c13.9-0.1,15.8,60.1-72.2,88.1c0,0,44.3-20.5,51.7-57.8
			c5.6-3.1,10.5-6.1,16.2-9.8l-22.3,0.2L743.7,424.8z"/>
		<path class="st0" d="M715.8,260.1c-16.6-15.4-42.1-4.3-37-22.8c11.9-43.2-160.2-11.5-105.5-30.1c57.3-19.5,29.1-1.5,42.4-1.9
			c59.9-1.8,36.2-0.2,36.2-0.2c-5.6,12.4-3-18.3-52.4-15.9c-33.5,1.7-87.9,15.9-87.3,34.1c0.4,12.2,7.8,26.6,75.2,22.4
			c42.6-2.6,65.5,30.2,54.2,42.8c-3.2,3.6-3.4,5.8-10.1,6.4c16.9,14.3,40.5,24.4,51.8,17.7c14.7-8.7,2.9-21.6,2.9-21.6
			s17.5,19.5-2.4,28.7c-22.5,10.3-72.3-24.6-81.3-31.2c-4.5-2.1-9.1-8.9-14.3-12.1c-72.5-45.3-172.5-22.2-154.6,31.9
			c14.6,44.2,109.3,60.9,128.9,65.3c-2.5,0.1-4.9,0.3-7.3,0.5c-15.1,1.5-23.2,1.8-32.8,7.7c-21.8,13.3,55.6,26.2,94.8,17.9
			c39.2-8.3-41.7-14.6-58.2-13.7c-14.5,0.8-12.3-9.9,30.8-12c31-1.6,49,2.3,49,2.3S496.6,329.4,502,295.6
			c3.7-23.3,51.4-1.2,51.4-1.2s-37.7-15.3-44.5,0.4c-2.9,6.6,10.6,17.5,27.6,22.8c5.5-40.4,69.6,26.9,143.8,28.8
			C741.2,347.9,742.7,285,715.8,260.1z"/>
		<path class="st2" d="M711.6,264.6c-16.6-15.4-41.4-4.2-36.3-22.6c11.9-43.2-156.7-16.2-102.1-34.8c57.3-19.5,29.1-1.5,42.4-1.9
			c59.9-1.8,55.9-38.8,55.9-38.8c-5.6,12.4-22.7,20.2-72.2,22.7c-33.5,1.7-87.9,15.9-87.3,34.1c0.4,12.2,11.4,19.9,78.8,15.8
			c42.6-2.6,66.8,36.4,55.5,49.1c-3.2,3.6-8.3,6.2-15,6.9c16.9,14.3,40.5,24.4,51.8,17.7c14.7-8.7,2.9-21.6,2.9-21.6
			s17.5,19.5-2.4,28.7c-22.5,10.3-72.3-24.6-81.3-31.2c-4.5-2.1-9.3-4.7-14.5-7.9c-64.6-40.6-162.1-26.6-144.2,27.5
			c14.6,44.2,99.1,61.1,118.7,65.6c-2.5,0.1-4.9,0.3-7.3,0.5c-15.1,1.5-23.2,1.8-32.8,7.7c-21.8,13.3,55.6,26.2,94.8,17.9
			c39.2-8.3-41.7-14.6-58.2-13.7c-14.5,0.8-12.3-9.9,30.8-12c31-1.6,49.2,0.6,49.2,0.6S496.6,329.4,502,295.6
			c3.7-23.3,51.4-1.2,51.4-1.2s-37.7-15.3-44.5,0.4c-2.9,6.6,10.6,17.5,27.6,22.8c5.5-40.4,62.5,22.1,136.6,23.9
			C734.1,343,738.5,289.5,711.6,264.6z"/>
		<g>
			<path class="st0" d="M236.5,569.8c0,0.1,12.8-8.9,40.4-17.8c4.6-1.5,16.4,0.4,21.9-1.1c39.6-7.5,90.5-20.3,157.7-27.2
				c67.1-6.9,146-9.7,230-4.2c41.9,2.8,84.3,9.7,127.6,17.6c1.6,0.3,2.5,0.9,4.1,1.2c25.4,4.7,51.8,7.5,77,14.9
				c2.3,0.7,6.2-1.4,8.6-0.6c13.9,4.7,28.3,11.3,39.3,17.4c0,0.1-21.3-6.6-59.5-14.2c-38.2-7.6-93.3-15.4-159.8-19.7
				c-66.5-4.4-144.5-5.6-227.9-1.4c-41.7,2.1-84.7,5.7-128.3,11.1C324,551.5,280,558.9,236.5,569.8z"/>
		</g>
		<g>
			<path class="st0" d="M199.8,749.7c0,0.1,22.6-10.5,64.7-22.3c41.9-11.8,103.3-23.9,177.6-30.5c74.3-6.7,161.4-8.6,254.1-1.9
				c46.3,3.4,94,8.8,141.8,17.4c23.9,4.3,47.9,9.3,71.6,15.5c23.7,6.1,47.2,14.1,70,23c0,0.1-23.3-8.4-65.5-16.8
				c-42.2-8.5-103.1-17.3-176.7-22.8c-73.6-5.5-159.8-7.9-252.1-4.1c-46.1,2-93.7,5.5-141.8,11.8c-24,3.2-48.2,7-72.2,12
				C247.2,735.9,223.3,741.9,199.8,749.7z"/>
		</g>
	</g>
</g>
<g id="Text">
	<path class="st3" d="M538.6,732.1c-0.5,0.5-1.1,0.9-1.7,1.1c-0.6,0.2-1.5,0.3-2.9,0.3h-3.9c-0.6,0-1.1-0.1-1.3-0.2
		c-0.2-0.1-0.4-0.3-0.5-0.5c-0.1-0.2-0.1-0.8-0.1-1.9v-7.6h5.1c1,0,1.7,0.1,2.2,0.3c0.5,0.2,0.8,0.5,1,0.9c0.2,0.3,0.3,1,0.5,2.2
		h0.6v-8.1h-0.6c-0.1,1.3-0.4,2.2-1,2.8c-0.4,0.4-1.3,0.6-2.6,0.6h-5.1v-9.2h6.4c1.2,0,2,0.1,2.4,0.3c0.6,0.2,1,0.6,1.3,1
		c0.3,0.5,0.6,1.3,0.8,2.5h0.7l-0.3-5.1h-17.9v0.6h0.8c1,0,1.6,0.2,2.1,0.7c0.3,0.3,0.4,1.2,0.4,2.7v15.1c0,1.1-0.1,1.9-0.2,2.2
		c-0.1,0.4-0.4,0.6-0.7,0.8c-0.5,0.3-1,0.4-1.6,0.4h-0.8v0.6h17.9l2-5.8h-0.7C540,730.3,539.3,731.4,538.6,732.1z M551.1,726
		l-2.5-1.2c-1.1-0.5-1.8-1-2.2-1.5c-0.4-0.5-0.5-1-0.5-1.6c0-0.5,0.2-1,0.7-1.4c0.5-0.4,1.1-0.6,1.9-0.6c1,0,1.9,0.3,2.6,0.9
		c0.7,0.6,1.2,1.7,1.7,3.4h0.6v-5.3h-0.6c-0.1,0.3-0.3,0.5-0.4,0.5c-0.1,0.1-0.2,0.1-0.4,0.1c-0.2,0-0.6-0.1-1.2-0.3
		c-0.9-0.3-1.6-0.4-2.2-0.4c-1.4,0-2.5,0.4-3.4,1.3c-0.9,0.9-1.3,1.9-1.3,3.2c0,1,0.3,1.8,0.8,2.5c0.5,0.7,1.6,1.4,3.2,2.2
		c1.7,0.8,2.8,1.5,3.3,2c0.6,0.5,0.8,1.2,0.8,2c0,0.6-0.2,1.2-0.7,1.7c-0.5,0.5-1.1,0.7-1.9,0.7c-1.1,0-2.1-0.4-3-1.2
		c-0.9-0.8-1.5-2-1.8-3.6H544v5.6h0.6c0.1-0.3,0.4-0.4,0.6-0.4c0.2,0,0.5,0.1,0.9,0.2c1.2,0.3,2.3,0.5,3.3,0.5
		c1.3,0,2.5-0.4,3.6-1.3c1.1-0.9,1.6-2,1.6-3.4C554.6,728.6,553.4,727.1,551.1,726z M564.1,732.6c-0.4,0.2-0.7,0.4-1.1,0.4
		c-0.5,0-0.8-0.2-1.1-0.5c-0.3-0.4-0.4-1-0.4-2.1v-10.1h3.7v-1.2h-3.7v-5.1h-0.5c-0.5,1.2-0.8,1.9-1.1,2.4c-0.5,0.8-1.1,1.5-1.8,2.1
		c-0.7,0.6-1.3,1-1.9,1.3v0.6h2.5v10.5c0,1.1,0.1,2,0.4,2.5c0.2,0.5,0.6,1,1.1,1.2c0.5,0.3,1,0.4,1.5,0.4c0.8,0,1.5-0.3,2.3-0.8
		c0.7-0.6,1.3-1.4,1.7-2.5h-0.7C564.7,732.1,564.5,732.4,564.1,732.6z M569.9,731.4c-0.5,0-1,0.2-1.3,0.5c-0.4,0.4-0.6,0.8-0.6,1.3
		c0,0.5,0.2,1,0.6,1.3c0.4,0.4,0.8,0.6,1.3,0.6c0.5,0,1-0.2,1.3-0.6c0.4-0.4,0.6-0.8,0.6-1.3c0-0.5-0.2-1-0.5-1.3
		C570.9,731.6,570.5,731.4,569.9,731.4z M593.5,733.1c-0.1-0.3-0.2-1.1-0.2-2.4v-19.6h-0.6l-5.6,2.8l0.3,0.5
		c0.8-0.4,1.3-0.5,1.8-0.5c0.3,0,0.5,0.1,0.8,0.3c0.2,0.2,0.4,0.4,0.4,0.8c0.1,0.5,0.2,1.6,0.2,3.2v12.5c0,1.4-0.1,2.2-0.2,2.5
		c-0.1,0.3-0.3,0.5-0.7,0.7c-0.3,0.2-1,0.3-2.1,0.3v0.6h8.7v-0.6c-1,0-1.7-0.1-2.1-0.3C593.8,733.6,593.6,733.4,593.5,733.1z
		 M609.2,711.1c-2.3,0-4.1,1-5.5,2.9c-1.2,1.6-1.7,3.4-1.7,5.4c0,2.1,0.6,3.8,1.7,5c1.2,1.3,2.6,1.9,4.2,1.9c1.4,0,3.1-0.6,4.9-1.7
		c-0.5,2-1.3,3.8-2.5,5.5c-1.2,1.7-2.4,2.8-3.7,3.5c-1.3,0.7-2.7,1-4.1,1v0.6h1c2.2,0,4.2-0.6,6-1.8c2.3-1.5,4-3.3,5.3-5.5
		c1.3-2.2,1.9-4.6,1.9-7.2c0-2.9-0.8-5.3-2.5-7.2C612.7,711.9,611.1,711.1,609.2,711.1z M613,723.3c-0.5,0.5-1.2,0.8-1.9,1.1
		c-0.7,0.3-1.3,0.4-1.9,0.4c-1.1,0-2-0.5-2.7-1.5c-1-1.4-1.5-3.2-1.5-5.6c0-1.8,0.4-3.2,1.1-4.1c0.8-0.9,1.7-1.4,2.7-1.4
		c0.9,0,1.7,0.3,2.3,1c0.7,0.7,1.2,1.7,1.6,2.9c0.4,1.3,0.6,2.5,0.6,3.6C613.3,720.6,613.2,721.8,613,723.3z M628.2,721.9
		c1.9-1.2,3.2-2.3,3.8-3.2c0.6-0.9,0.9-1.8,0.9-2.6c0-1.3-0.6-2.5-1.7-3.5c-1.1-1-2.6-1.5-4.5-1.5c-1.9,0-3.5,0.5-4.6,1.6
		c-1.2,1.1-1.7,2.4-1.7,3.9c0,1,0.3,1.9,0.8,2.8c0.5,0.9,1.7,2.1,3.5,3.6c-1.7,1.2-2.9,2.3-3.6,3.3c-0.7,1-1,2-1,3.1
		c0,1.3,0.5,2.5,1.5,3.6c1.2,1.4,2.9,2.1,5.1,2.1c2,0,3.6-0.6,4.9-1.7c1.2-1.2,1.9-2.5,1.9-4.2c0-1.3-0.4-2.5-1.3-3.7
		C631.6,724.7,630.3,723.4,628.2,721.9z M624.6,718.9c-0.6-0.5-1-1.1-1.3-1.7c-0.3-0.6-0.5-1.2-0.5-1.8c0-0.9,0.4-1.7,1.1-2.4
		c0.7-0.7,1.7-1,2.8-1c1.2,0,2.1,0.3,2.8,1c0.7,0.7,1,1.6,1,2.8c0,0.9-0.2,1.7-0.5,2.4c-0.4,0.7-1.2,1.7-2.6,2.9L624.6,718.9z
		 M630,733.2c-0.7,0.7-1.7,1-3,1c-1.2,0-2.3-0.4-3.1-1.3c-0.8-0.9-1.2-2.1-1.2-3.5c0-1.1,0.2-2.1,0.7-3c0.5-0.9,1.2-1.8,2.1-2.6
		c2.5,1.9,4.1,3.5,4.9,4.7c0.4,0.6,0.6,1.4,0.6,2.2C631.1,731.6,630.7,732.5,630,733.2z M640.9,717.6l1.5-3.1h7l1.3-2.9h-8.3l-4.4,9
		c2.1,0.1,3.8,0.4,5.1,0.9c1.6,0.7,2.8,1.6,3.7,2.8c0.9,1.2,1.4,2.5,1.4,3.9c0,1.4-0.5,2.7-1.5,3.7c-1,1-2.2,1.5-3.5,1.5
		c-0.9,0-1.7-0.3-2.6-0.9c-0.5-0.4-0.9-0.6-1.1-0.7c-0.2-0.1-0.5-0.1-0.8-0.1c-0.4,0-0.7,0.1-1,0.4c-0.3,0.2-0.4,0.5-0.4,0.8
		c0,0.6,0.3,1.1,0.9,1.6c0.6,0.5,1.6,0.7,3,0.7c1.4,0,2.7-0.3,4-0.9c0.9-0.4,1.8-1,2.5-1.8c0.8-0.7,1.4-1.6,1.9-2.6
		c0.5-1,0.7-2.2,0.7-3.4c0-2.1-0.8-3.9-2.3-5.5C646.3,719.1,643.9,718,640.9,717.6z"/>
	<path class="st0" d="M339.1,664.4c-4.2,3.2-9,5.3-14.5,6.3c-6.7,1.2-12.5,0.7-17.3-1.7c-4.9-2.4-8.9-6.5-12.2-12.4
		c-3.3-5.9-5.7-12.7-7.3-20.4c-1.6-7.8-1.7-15.2-0.2-22.1c1.2-5.4,3.8-10.2,8-14.2c4.2-4,9.2-6.6,14.9-7.6
		c6.9-1.3,13.4-0.3,19.6,2.9c6.1,3.2,10.8,8.6,14.1,16.1c0.9-0.1,1.7-0.3,2.6-0.4c-1.6-10-3.3-20-4.9-30c-0.9,0.1-1.8,0.3-2.7,0.4
		c0,2.2-0.4,3.9-1.3,5.1c-0.9,1.2-2.1,1.9-3.5,2.1c-1.1,0.2-3.9-0.1-8.4-0.9c-7.7-1.4-14.8-1.4-21.3-0.2c-8.8,1.7-16.8,5.3-23.7,11
		c-7,5.7-11.9,12.7-14.8,21c-2.9,8.3-3.4,16.5-1.6,24.7c1.7,7.7,5.4,14.6,10.8,20.6c5.5,6,12.2,10,20.1,12.2
		c8,2.2,16.6,2.4,25.8,0.6c7.1-1.3,13-3.6,17.9-6.8c4.9-3.2,9.4-7.7,13.5-13.6c-0.4-2.5-0.8-5-1.2-7.5
		C347.4,656.3,343.3,661.2,339.1,664.4z M412.6,614.2c-3-4.7-7.1-8.1-12.1-10.2c-5.1-2.1-10.3-2.8-15.8-2
		c-9.1,1.3-15.8,5.5-20.1,12.7c-4.2,7.2-5.6,15-4.3,23.6c1.3,8.3,5,15.2,10.8,20.7c5.9,5.6,13.3,7.7,22.4,6.4
		c9.2-1.3,16-5.6,20.5-13.2c3.7-6.3,5.1-13.6,4.1-22.2C417.5,624.2,415.7,618.9,412.6,614.2z M400,652.3c-0.2,2.7-1.1,4.9-2.6,6.5
		c-1.2,1.2-2.7,2-4.6,2.3c-2,0.3-3.9-0.3-5.6-1.6c-1.8-1.4-3.1-3.5-4-6.5c-1.2-3.9-2.1-8.1-2.8-12.7c-1.2-8.6-2-15.4-2.1-20.3
		c-0.2-4.9,0.4-8.3,1.8-10.2c1.4-1.9,3.2-3,5.5-3.3c1.9-0.3,3.5,0,4.7,0.7c1.8,1,3.3,2.8,4.5,5.4c1.2,2.6,2.3,7.5,3.2,14.8
		C399.7,639.8,400.4,648.1,400,652.3z M551.7,640.5c-2.1,1.5-4.5,2.3-7.1,2.4c-4.2,0.1-7.9-1.5-11.1-5c-4.1-4.5-6.6-10.7-7.3-18.7
		c11.4-0.5,22.7-0.9,34.1-1.1c-0.6-9.9-3.2-17.2-8.1-22.1c-4.8-4.9-10.5-7.2-16.9-7c-7.7,0.3-14.3,3.6-19.7,9.8
		c-5.4,6.2-7.7,14.4-7.2,24.5c0.5,8.2,2.7,15,6.8,20.3c5,6.6,12,9.7,21,9.4c5.2-0.2,9.8-1.7,13.7-4.6c3.9-2.9,7.5-7.7,10.6-14.5
		c-0.8-0.5-1.5-0.9-2.3-1.4C556,636.3,553.8,639,551.7,640.5z M525.6,612.6c-0.3-6.7,0.8-12,3.3-15.9c1.4-2.3,3.3-3.4,5.6-3.5
		c1.6-0.1,2.9,0.3,3.8,1c1.7,1.3,3,3.2,3.9,5.7c0.9,2.6,1.4,7.3,1.6,14.2c-6,0.2-12.1,0.4-18.1,0.7
		C525.6,614.1,525.6,613.4,525.6,612.6z M497.2,574.5c0.1,1.4,0.9,2.7,2.3,3.7c1.5,1.1,3.4,1.5,5.7,1.4c2.8-0.2,5-1,6.6-2.5
		c1.6-1.5,2.4-3.2,2.3-5.2c-0.1-2.4-1.6-4.5-4.4-6.4c-2.8-1.8-7.1-2.6-12.8-2.2c-8.3,0.5-14.7,3-19.2,7.5c-4.5,4.5-6.5,9.8-6,16
		c0.1,1,0.2,2,0.3,3c0.1,1.5,0.2,3,0.4,4.4c-3.1,0.2-6.1,0.5-9.2,0.8c0.2,2.1,0.4,4.2,0.5,6.3c3.1-0.3,6.1-0.5,9.2-0.8
		c1.1,13.9,2.2,27.9,3.3,41.8c0.3,3.3,0.2,5.4-0.1,6.5c-0.4,1.1-1.1,1.9-2.2,2.6c-1.1,0.7-3,1.1-5.7,1.4c0.1,0.8,0.1,1.5,0.2,2.3
		c11.9-1,23.9-1.9,35.8-2.6c0-0.8-0.1-1.5-0.1-2.3c-3.7,0.4-6.3-0.2-7.8-1.7c-0.9-1-1.5-3.5-1.8-7.5c-0.9-13.9-1.9-27.9-2.8-41.8
		c3.1-0.2,6.2-0.4,9.3-0.6c-0.1-2.1-0.3-4.2-0.4-6.3c-3.1,0.2-6.2,0.4-9.3,0.6c-0.2-2.6-0.3-5.1-0.5-7.7c-0.3-3.8-0.6-7.5-0.9-11.3
		c-0.2-2.3,0.2-4,1-5.1c0.8-1.1,1.9-1.7,3.2-1.8c1.1-0.1,2,0.2,2.7,0.8c0.6,0.4,0.9,1,0.9,1.9c0,0.6,0,1.3-0.1,2.1
		C497.3,573.3,497.2,574.1,497.2,574.5z M455,652c-1-0.9-1.6-3.4-2-7.5c-1.3-13.9-2.6-27.8-4-41.7c3.1-0.3,6.2-0.6,9.3-0.9
		c-0.2-2.1-0.4-4.2-0.6-6.3c-3.1,0.3-6.2,0.6-9.3,0.9c-0.2-2.6-0.5-5.1-0.7-7.7c-0.4-3.7-0.8-7.5-1.2-11.2c-0.2-2.3,0.1-4,0.9-5.1
		c0.8-1.1,1.9-1.7,3.2-1.9c1.1-0.1,2,0.1,2.8,0.7c0.6,0.4,0.9,1,1,1.9c0.1,0.6,0,1.3-0.1,2.1c-0.2,1.2-0.2,2-0.2,2.4
		c0.1,1.4,0.9,2.6,2.4,3.7c1.5,1,3.4,1.5,5.8,1.2c2.8-0.2,4.9-1.1,6.5-2.7c1.6-1.6,2.3-3.3,2.1-5.2c-0.2-2.4-1.7-4.5-4.6-6.2
		c-2.9-1.8-7.2-2.4-12.8-1.9c-8.3,0.7-14.6,3.5-19,8.1c-4.4,4.6-6.2,10-5.6,16.2c0.1,1,0.3,2,0.4,3c0.2,1.5,0.3,3,0.5,4.4
		c-3.1,0.3-6.1,0.7-9.2,1c0.2,2.1,0.5,4.2,0.7,6.3c3-0.3,6.1-0.7,9.1-1c1.5,13.9,3,27.8,4.5,41.7c0.3,3.3,0.4,5.4,0,6.5
		c-0.3,1.1-1,2-2.1,2.7c-1.1,0.7-3,1.2-5.7,1.6c0.1,0.8,0.2,1.5,0.3,2.3c11.9-1.4,23.8-2.6,35.7-3.6c-0.1-0.8-0.1-1.5-0.2-2.3
		C459.2,653.9,456.6,653.4,455,652z M617.4,617.9c-0.2-9.9-2.6-17.4-7.2-22.4c-4.6-5.1-10.2-7.6-16.6-7.6c-7.7,0-14.4,3-20,9.1
		c-5.6,6-8.3,14.1-8.1,24.2c0.1,8.2,2.2,15.1,6,20.6c4.8,6.8,11.6,10.2,20.6,10.2c5.2,0,9.9-1.4,13.9-4.1c4-2.7,7.7-7.4,11.2-14
		c-0.7-0.5-1.5-1-2.2-1.5c-2.5,3.7-4.8,6.3-7,7.7c-2.2,1.4-4.5,2.1-7.2,2.1c-4.2,0-7.8-1.8-10.9-5.4c-3.9-4.6-6.2-11-6.6-19
		C594.6,617.7,606,617.7,617.4,617.9z M582.9,613.4c0-0.8,0-1.5,0-2.3c0-6.7,1.2-11.9,3.9-15.8c1.5-2.2,3.4-3.3,5.7-3.3
		c1.6,0,2.8,0.4,3.8,1.2c1.7,1.3,2.9,3.3,3.7,5.9c0.8,2.6,1.1,7.4,1.1,14.3C595,613.4,588.9,613.4,582.9,613.4z M699.8,573
		c-5.5-4.9-15-7.8-28.4-8.5c-13.6-0.7-27.2-1.2-40.8-1.6c0,0.8,0,1.6-0.1,2.4c4.3,0.1,7.2,0.6,8.7,1.3c1.5,0.8,2.6,1.8,3.2,3
		c0.6,1.2,0.8,4.2,0.6,9c-0.6,18.9-1.3,37.9-1.9,56.8c-0.2,4.7-0.6,7.7-1.2,8.9c-0.6,1.2-1.7,2.1-3.2,2.8c-1.5,0.7-4.3,1-8.3,0.9
		c0,0.8,0,1.6-0.1,2.4c14.9,0.4,29.9,1,44.8,1.8c0-0.8,0.1-1.6,0.1-2.4c-4-0.2-6.7-0.7-8.2-1.5c-1.5-0.8-2.5-1.8-3-3.1
		c-0.5-1.3-0.7-4.2-0.5-9c0.4-8.1,0.8-16.2,1.2-24.3c10.3,0.5,17.6,0.4,22-0.3c6.5-1.1,11.7-3.5,15.7-7.2c4-3.8,6.2-8.5,6.6-14.1
		C707.8,583.7,705.3,577.9,699.8,573z M684.7,589.1c-0.4,6.5-2.2,11.3-5.3,14.2c-3.1,2.9-7.4,4.3-12.9,4c-0.8,0-1.9-0.1-3.3-0.3
		c0.6-12.6,1.2-25.2,1.8-37.8c0.9,0,1.9,0.1,2.8,0.1c6,0.3,10.4,2.1,13.3,5.2C683.9,577.8,685.1,582.7,684.7,589.1z M739.7,569.6
		c-9-0.9-18-1.6-27-2.4c-0.1,0.8-0.1,1.6-0.2,2.4c3,0.4,5,1.3,6,2.5c1,1.3,1.3,4,0.9,8.2c-1.7,20.8-3.5,41.5-5.2,62.3
		c-0.4,4.2-1,6.8-2,7.7c-1.4,1.4-3.5,2-6.2,1.8c-0.1,0.8-0.1,1.5-0.2,2.3c10.9,0.9,21.9,1.8,32.8,2.9c0.1-0.8,0.2-1.5,0.2-2.3
		c-2.9-0.5-4.8-1.3-5.6-2.6c-0.9-1.3-1.1-4-0.7-8.3C734.9,619.4,737.3,594.5,739.7,569.6z M796.5,657c-0.6-0.1-1-0.3-1.4-0.7
		c-0.4-0.4-0.6-1-0.8-1.7c-0.1-0.7,0-2.5,0.4-5.2c1.1-7.7,2.2-15.5,3.2-23.2c0.9-6.4,1.2-10.6,0.8-12.5c-0.6-3-2.5-5.9-5.7-8.8
		c-3.2-2.9-7.7-4.7-13.7-5.4c-5-0.6-9.8-0.4-14.6,0.5c-4.8,1-8.6,2.7-11.4,5.3c-2.9,2.5-4.4,5.3-4.8,8.4c-0.2,2.2,0.5,4.2,2.2,6
		c1.7,1.8,4,2.9,6.7,3.2c2.6,0.3,4.8-0.2,6.6-1.5c1.8-1.3,2.8-3,3.1-5.1c0.2-1.7-0.4-3.6-1.9-5.6c-1.1-1.5-1.6-2.7-1.5-3.6
		c0.1-1,0.8-1.9,2.1-2.5c2-1,4.5-1.4,7.4-1c1.8,0.2,3.4,0.9,4.7,1.9c1.3,1.1,2.2,2.2,2.5,3.4c0.4,1.2,0.3,4.1-0.3,8.7
		c-0.3,2-0.5,4-0.8,6c-14.4,4.3-23.8,8.3-28.2,11.5c-4.4,3.2-6.9,7.1-7.3,11.7c-0.4,3.4,0.5,6.3,2.6,8.8c2.1,2.5,4.8,3.9,8.3,4.3
		c5.9,0.7,12.9-1.8,21.1-7.3c0,3.3,0.9,5.9,2.6,7.7c1.7,1.9,4.3,3,7.8,3.5c2.9,0.4,5.6,0,8.1-1.1c2.5-1.1,5.1-3.1,7.7-5.9
		c-0.6-0.6-1.2-1.2-1.7-1.8C798.8,656.5,797.6,657.1,796.5,657z M776.3,648c-3.2,2-5.8,2.9-8,2.7c-2-0.2-3.4-1-4.4-2.3
		c-1.3-1.7-1.8-3.5-1.5-5.5c0.3-2.4,1.4-4.6,3.4-6.7c3-3.2,7.3-5.9,13.1-8.3C778,634.7,777.2,641.3,776.3,648z M843.4,608.8
		c-9.7-1.6-17.9,0.9-24.5,7.5c-5.5,5.5-8.8,12.3-10,20.5c-1.2,8.4,0.1,16,4.1,22.8c3.9,6.7,9.9,10.7,17.9,12.1
		c4.8,0.8,9.5,0.3,14.1-1.5c4.7-1.8,8.9-5.1,12.7-9.8c-0.6-0.6-1.2-1.3-1.7-1.9c-3.1,2.2-5.7,3.7-7.7,4.3c-2.1,0.6-4.2,0.8-6.3,0.4
		c-3.2-0.6-5.9-1.9-8-4.2c-2.7-3-4.6-7.3-5.6-12.7c-1-5.4-1.1-10.9-0.2-16.6c1.1-6.8,3-11.6,5.9-14.5c1.9-1.9,3.9-2.7,6-2.4
		c1.4,0.2,2.5,1,3.3,2.2c0.8,1.2,1.2,3.2,1,5.9c-0.3,4.3,0.2,7.4,1.6,9.4c1.4,1.9,3.4,3.1,6,3.6c2.5,0.4,4.6,0.1,6.4-1.1
		c1.8-1.2,2.9-3,3.3-5.4c0.7-3.8-0.6-7.6-3.8-11.4C854.8,612.3,849.9,609.9,843.4,608.8z M917.2,653.6c1.8-9.7,1-17.5-2.6-23.4
		c-3.6-5.9-8.5-9.5-14.8-10.8c-7.6-1.6-14.8,0.1-21.5,4.8c-6.7,4.8-11,12.2-12.8,22.1c-1.5,8.1-0.9,15.2,1.8,21.4
		c3.3,7.7,9.4,12.3,18.2,14.2c5.2,1.1,10,0.7,14.5-1.2c4.5-1.9,9.1-5.7,13.9-11.5c-0.6-0.6-1.3-1.3-1.9-1.9c-3.2,3.1-6,5.2-8.4,6.1
		c-2.4,1-4.9,1.2-7.5,0.6c-4.2-0.9-7.4-3.4-9.6-7.5c-2.9-5.3-3.9-12-2.7-19.9C894.8,648.8,906,651.1,917.2,653.6z M884.6,640
		c1.3-6.5,3.6-11.4,7-14.7c1.9-1.9,4-2.6,6.3-2.1c1.6,0.3,2.7,1,3.5,1.9c1.4,1.7,2.2,3.8,2.4,6.5c0.2,2.7-0.4,7.4-1.8,14.2
		c-6-1.3-11.9-2.5-17.9-3.7C884.3,641.5,884.4,640.7,884.6,640z"/>
</g>
</svg>
